<?xml version="1.0" standalone="no"?>
<!DOCTYPE svg PUBLIC "-//W3C//DTD SVG 20010904//EN"
 "http://www.w3.org/TR/2001/REC-SVG-20010904/DTD/svg10.dtd">
<svg version="1.0" xmlns="http://www.w3.org/2000/svg"
 width="1280.000000pt" height="932.000000pt" viewBox="0 0 1280.000000 932.000000"
 preserveAspectRatio="xMidYMid meet">

<g transform="translate(0.000000,932.000000) scale(0.100000,-0.100000)"
fill="#000000" stroke="none">
<path d="M3705 8667 c-70 -19 -124 -49 -167 -94 -60 -62 -68 -93 -68 -259 0
-141 -1 -146 -20 -141 -11 3 -30 -3 -42 -13 -49 -39 -15 -202 52 -250 18 -13
30 -33 35 -57 4 -21 15 -52 26 -69 15 -25 19 -50 19 -127 0 -89 -1 -96 -22
-103 -12 -3 -115 -46 -230 -95 -115 -49 -223 -89 -239 -89 -96 0 -258 -72
-348 -156 -104 -95 -157 -196 -188 -352 -16 -80 -19 -87 -65 -130 -64 -60
-123 -178 -146 -294 -13 -67 -22 -89 -37 -96 -40 -19 -111 -91 -138 -140 -15
-27 -34 -86 -42 -131 -20 -105 -98 -331 -187 -541 -39 -91 -96 -241 -128 -333
l-57 -168 34 -92 c18 -51 37 -95 41 -99 4 -4 51 -13 105 -19 87 -11 99 -10
115 4 23 21 32 21 32 2 0 -38 50 -98 67 -81 12 12 63 175 63 203 0 42 -52 180
-95 255 l-36 60 48 41 c26 23 58 51 71 61 49 39 206 224 268 317 67 100 133
233 155 309 8 29 30 64 64 100 62 67 122 154 191 278 l51 93 112 -276 c121
-302 126 -323 96 -435 -16 -60 -19 -123 -8 -220 l6 -62 62 -28 c58 -26 62 -31
68 -66 17 -101 -5 -223 -59 -333 -28 -57 -59 -96 -132 -170 -52 -53 -106 -113
-120 -134 -14 -20 -26 -36 -27 -35 -3 4 21 165 36 238 6 30 26 107 44 170 18
63 43 149 55 190 12 41 33 94 46 117 27 46 28 53 14 53 -16 0 -58 -82 -80
-160 -12 -41 -37 -127 -55 -190 -41 -142 -49 -180 -75 -355 -12 -77 -30 -192
-42 -255 -29 -166 -22 -415 17 -585 32 -139 91 -313 150 -440 39 -84 42 -98
48 -205 8 -121 27 -221 53 -271 13 -26 13 -44 3 -132 -16 -143 -6 -439 20
-592 12 -66 37 -175 56 -241 37 -128 75 -351 75 -444 0 -30 -7 -79 -15 -109
-7 -29 -17 -79 -21 -110 -4 -32 -20 -80 -39 -116 -18 -33 -45 -94 -61 -135
-15 -41 -44 -95 -64 -120 -61 -74 -107 -147 -126 -196 -16 -42 -16 -48 -1 -72
21 -35 81 -65 176 -87 70 -16 80 -16 113 -2 22 9 46 30 57 49 11 18 30 44 41
57 31 36 58 92 78 168 17 62 23 70 62 93 24 14 57 42 73 63 26 31 32 49 35
102 3 42 -1 80 -12 111 -9 26 -16 73 -16 103 0 100 30 372 60 556 39 229 52
286 84 362 38 88 49 163 43 273 -7 112 -26 188 -74 290 l-34 75 15 175 c25
271 26 293 35 495 5 105 5 233 2 285 -5 67 -3 108 7 140 50 168 80 390 64 473
l-9 47 71 0 71 0 1 -117 c1 -123 17 -232 57 -368 20 -70 22 -91 15 -160 -12
-112 4 -453 38 -806 l16 -166 -31 -61 c-54 -107 -75 -202 -76 -337 0 -126 11
-186 51 -265 21 -44 34 -100 73 -330 24 -146 28 -173 46 -355 19 -187 19 -249
0 -300 -18 -51 -19 -146 -1 -188 16 -37 51 -72 103 -101 30 -18 38 -30 50 -76
17 -69 53 -147 82 -180 12 -14 31 -40 41 -58 11 -18 36 -40 55 -49 33 -16 40
-16 112 1 105 25 167 57 183 95 10 26 9 36 -12 83 -14 29 -54 91 -89 138 -43
55 -75 111 -93 160 -16 41 -43 104 -61 140 -47 93 -80 278 -72 393 8 103 40
288 60 342 78 217 117 617 86 879 -9 81 -9 98 5 124 24 46 45 160 52 275 5 94
10 111 56 216 64 146 121 318 148 446 26 119 38 406 21 500 -6 33 -26 161 -46
285 -20 124 -47 266 -60 315 -14 50 -38 137 -54 195 -43 154 -86 241 -111 225
-7 -4 -2 -17 15 -36 13 -17 36 -67 49 -112 95 -317 99 -336 140 -597 4 -24 3
-24 -18 5 -11 16 -66 77 -121 135 -147 154 -205 278 -205 440 0 101 5 109 76
141 l62 28 7 98 c6 75 4 113 -9 168 -31 132 -28 145 95 450 l112 275 59 -108
c69 -123 112 -185 183 -262 38 -40 56 -71 69 -115 58 -189 235 -443 438 -626
51 -46 94 -84 96 -85 2 -1 -13 -29 -32 -62 -44 -74 -96 -213 -96 -255 0 -30
41 -168 58 -195 18 -28 72 27 72 74 0 15 2 15 26 -1 24 -15 36 -16 123 -6 52
7 99 15 103 19 3 4 22 48 41 98 l34 92 -52 154 c-29 85 -81 221 -115 304 -126
299 -210 544 -210 613 -1 65 -78 179 -155 227 -25 16 -45 36 -45 45 0 41 -46
191 -77 251 -19 37 -57 88 -84 113 -45 42 -50 51 -59 111 -23 145 -77 253
-174 350 -43 43 -95 83 -131 101 -74 38 -186 73 -230 73 -19 0 -108 32 -207
73 -95 41 -199 84 -230 97 l-58 24 0 94 c0 76 4 101 19 126 11 17 22 48 26 69
5 24 17 44 35 57 43 30 71 98 72 171 1 52 -3 65 -21 80 -11 9 -30 15 -41 12
-19 -5 -20 0 -20 143 0 171 -10 204 -84 272 -79 72 -230 107 -341 79z m160
-18 c114 -21 211 -93 235 -176 6 -22 10 -91 8 -163 -3 -125 -3 -125 -20 -90
-9 19 -19 65 -23 101 l-7 65 -61 -13 c-80 -18 -314 -18 -393 0 l-61 13 -6 -67
c-3 -37 -14 -82 -24 -101 l-18 -33 -3 137 c-3 152 3 174 62 236 39 43 96 73
166 88 71 16 76 16 145 3z m-170 -310 c81 -9 129 -9 210 0 58 7 112 14 119 17
10 4 15 -11 21 -53 3 -32 18 -84 32 -116 25 -55 26 -63 19 -180 -9 -170 -15
-190 -78 -254 -139 -141 -285 -144 -428 -7 -71 68 -76 82 -88 259 l-9 130 28
51 c19 33 31 72 35 113 5 45 11 61 20 57 7 -3 61 -10 119 -17z m-230 -199 c3
-5 9 -54 13 -110 6 -85 5 -100 -7 -98 -27 6 -61 87 -61 148 0 31 3 60 7 63 10
10 41 8 48 -3z m723 -53 c3 -64 -24 -139 -58 -157 -16 -8 -17 -5 -14 33 2 23
5 70 8 104 5 73 11 85 39 81 19 -3 22 -10 25 -61z m-569 -464 c20 -78 43 -218
56 -346 l7 -68 -39 6 c-78 14 -73 4 -73 134 0 65 -3 180 -6 257 -5 139 -5 139
14 117 11 -12 29 -57 41 -100z m414 -146 c-6 -257 -6 -257 -28 -257 -13 0 -37
-3 -55 -6 l-32 -7 6 74 c11 120 46 315 67 376 18 52 38 88 45 80 2 -1 0 -119
-3 -260z m-294 153 c59 -18 63 -18 122 0 33 10 71 26 85 35 28 18 28 21 9 -52
-20 -78 -42 -219 -51 -325 -6 -73 -10 -88 -25 -93 -11 -4 -33 -18 -49 -32
l-30 -25 -30 25 c-16 14 -38 28 -48 31 -16 5 -21 25 -31 129 -10 107 -33 240
-56 331 l-8 28 26 -17 c14 -9 53 -25 86 -35z m-190 -257 c1 -74 -3 -134 -9
-138 -28 -17 -252 41 -355 93 -58 29 -67 36 -50 43 11 4 106 43 210 88 166 70
191 78 197 63 4 -9 7 -76 7 -149z m738 72 c193 -81 195 -82 172 -99 -42 -29
-181 -78 -277 -97 -146 -29 -132 -44 -132 137 0 153 0 155 21 149 11 -4 109
-44 216 -90z m-1151 -121 c24 -14 85 -41 136 -59 85 -30 91 -34 63 -40 -64
-15 -176 -77 -224 -124 -59 -58 -114 -141 -132 -200 -12 -39 -19 -46 -83 -78
-105 -53 -211 -119 -300 -186 l-79 -60 6 134 c11 224 59 352 178 471 74 73
171 127 275 152 85 21 110 19 160 -10z m1484 10 c108 -25 205 -78 279 -153
119 -119 168 -249 178 -475 l6 -129 -79 60 c-89 68 -195 133 -302 187 -40 20
-72 42 -72 49 0 6 -13 39 -29 72 -61 129 -165 222 -298 266 l-67 22 75 26 c41
15 101 41 134 58 69 37 86 38 175 17z m-1070 -128 c134 -19 179 -33 212 -66
l28 -28 0 -250 0 -249 -57 -31 c-32 -16 -92 -42 -133 -58 -67 -25 -88 -28
-200 -28 -208 -1 -296 35 -353 145 -40 79 -63 200 -47 252 41 139 184 267 346
312 63 17 89 17 204 1z m700 -1 c146 -39 263 -132 328 -263 l36 -74 -12 -68
c-29 -168 -89 -252 -202 -285 -36 -10 -110 -20 -165 -22 -125 -6 -204 11 -332
72 l-93 44 0 249 c0 235 1 251 20 275 27 34 90 57 202 72 126 17 154 17 218 0z
m-1233 -556 c24 -53 75 -114 112 -133 27 -14 153 -43 206 -48 49 -5 36 -30
-33 -64 -119 -59 -244 -71 -322 -31 -38 19 -47 30 -69 87 -18 48 -24 86 -25
145 -1 86 11 128 53 184 l25 35 16 -65 c9 -35 26 -84 37 -110z m1673 95 c12
-23 24 -73 27 -111 4 -57 1 -81 -22 -148 -14 -44 -33 -87 -41 -96 -41 -45
-198 -50 -306 -10 -61 24 -121 60 -122 75 -1 6 35 15 79 21 209 30 270 91 320
319 6 27 7 28 25 11 11 -10 29 -37 40 -61z m230 -72 c113 -76 248 -210 284
-284 36 -74 41 -120 22 -194 -22 -86 -21 -232 3 -326 34 -130 120 -283 225
-395 74 -79 82 -60 10 21 -83 93 -166 229 -199 327 -40 119 -46 264 -16 373
23 84 46 136 60 136 15 0 119 -99 141 -135 11 -18 29 -75 40 -126 30 -141 108
-362 215 -609 20 -47 63 -162 96 -257 l60 -172 -33 -88 -33 -88 -85 -12 -85
-11 -43 29 c-23 16 -44 29 -46 29 -2 0 -2 -17 1 -38 4 -27 0 -44 -14 -61 l-19
-23 -28 90 -29 90 31 90 c17 49 49 120 71 158 l40 68 -124 119 c-218 208 -353
400 -419 597 -19 56 -36 87 -69 121 -59 62 -124 154 -188 269 l-53 95 -1 120
c0 111 -2 124 -28 173 l-27 54 77 -42 c43 -23 116 -67 163 -98z m-2037 66
c-23 -56 -25 -72 -20 -159 l5 -96 -49 -92 c-66 -127 -133 -225 -194 -286 -38
-37 -55 -64 -65 -100 -32 -120 -132 -296 -251 -441 -32 -39 -112 -123 -178
-185 l-119 -114 44 -80 c24 -44 56 -116 70 -161 l27 -80 -27 -82 c-15 -45 -32
-82 -36 -82 -17 0 -32 43 -27 76 3 19 4 34 2 34 -3 0 -24 -13 -47 -29 -43 -29
-44 -29 -123 -19 -44 6 -85 15 -91 22 -6 6 -23 46 -38 89 l-28 77 60 173 c34
94 99 266 146 380 96 235 150 394 165 486 6 35 20 83 31 107 20 41 130 154
150 154 15 0 40 -56 61 -137 59 -232 -20 -482 -226 -711 -51 -57 -54 -84 -4
-36 103 97 220 299 253 436 20 85 21 219 0 309 -20 88 -13 137 28 209 37 66
158 189 248 252 65 46 238 148 251 148 4 0 -5 -28 -18 -62z m-383 -89 l0 -91
-49 -54 c-44 -47 -85 -118 -105 -178 -7 -19 -7 -19 -21 1 -12 17 -13 32 -4 79
13 76 36 147 66 207 24 49 88 127 104 127 5 0 9 -41 9 -91z m2655 49 c51 -60
92 -152 115 -254 16 -76 17 -91 5 -113 -13 -25 -14 -25 -20 -6 -20 58 -63 130
-106 179 l-49 54 0 91 c0 50 4 91 9 91 5 0 26 -19 46 -42z m-1365 -297 c0
-107 -4 -182 -10 -186 -5 -3 -67 -10 -137 -15 -135 -9 -184 -22 -253 -65 l-43
-27 7 98 c8 110 21 186 37 226 9 22 19 28 58 33 87 12 163 35 245 74 44 22 84
40 89 40 4 1 7 -80 7 -178z m115 138 c75 -35 128 -50 272 -75 14 -3 26 -17 37
-46 16 -43 36 -188 36 -264 l0 -42 -78 40 c-75 38 -83 40 -209 48 -72 4 -136
11 -142 15 -10 6 -17 365 -7 365 2 0 43 -18 91 -41z m-559 -186 c-14 -102 -12
-98 -73 -111 -31 -6 -59 -10 -62 -8 -4 3 -21 24 -38 49 l-32 44 52 12 c29 6
75 22 102 35 28 14 52 25 54 25 2 1 0 -20 -3 -46z m1062 -14 l52 -10 -32 -46
c-18 -24 -36 -47 -41 -50 -8 -5 -108 17 -118 26 -4 3 -10 36 -14 73 l-7 68 54
-25 c29 -13 77 -30 106 -36z m-1311 -14 c6 2 30 -21 53 -52 l42 -55 -41 -41
-41 -41 -51 49 c-48 47 -78 93 -93 141 -6 20 -5 20 56 8 35 -8 68 -12 75 -9z
m1537 3 c-15 -49 -38 -85 -91 -139 l-54 -56 -40 40 c-21 22 -39 42 -39 45 0 3
18 29 40 59 39 51 43 53 88 54 26 0 56 4 67 9 32 14 37 11 29 -12z m-1304
-214 c0 -94 -3 -115 -14 -111 -7 3 -34 8 -59 12 -38 6 -54 16 -87 51 -47 51
-45 64 16 110 29 22 100 50 137 53 4 1 7 -51 7 -115z m1051 85 c34 -17 89 -71
89 -88 0 -4 -19 -25 -42 -48 -33 -31 -56 -44 -96 -52 -29 -6 -55 -11 -57 -11
-3 0 -5 52 -5 115 l0 116 38 -7 c20 -4 53 -15 73 -25z m-591 -113 l0 -105 -47
-6 c-108 -13 -179 -27 -199 -40 -26 -17 -132 -45 -168 -45 l-27 0 3 97 3 98
55 33 c72 43 113 53 245 62 61 4 116 8 123 8 9 2 12 -25 12 -102z m214 89 c81
-5 154 -31 217 -75 29 -21 29 -23 29 -114 0 -51 -2 -95 -5 -98 -9 -9 -131 20
-192 46 -32 13 -85 27 -118 30 -33 4 -75 9 -92 12 l-33 5 0 104 0 105 58 -5
c31 -2 93 -7 136 -10z m-827 -154 c3 -6 -67 -44 -72 -39 -6 6 -75 182 -75 190
0 8 143 -138 147 -151z m1358 57 c-21 -51 -40 -95 -41 -97 -4 -4 -74 31 -74
37 0 9 144 161 148 157 3 -3 -12 -46 -33 -97z m-1227 -99 c20 -8 22 -14 22
-93 0 -76 -2 -86 -22 -100 -32 -23 -74 -20 -128 10 l-48 26 -4 66 c-4 53 -1
70 11 79 37 30 107 34 169 12z m1149 -7 c15 -11 21 -24 18 -37 -3 -11 -5 -41
-5 -67 0 -42 -3 -48 -36 -69 -42 -26 -113 -36 -143 -20 -19 11 -21 20 -21 105
l0 94 48 10 c57 12 107 6 139 -16z m-667 -136 c0 -81 -4 -117 -12 -123 -7 -4
-74 -10 -148 -13 -123 -5 -139 -7 -180 -31 -25 -15 -54 -36 -64 -48 -11 -12
-23 -21 -28 -21 -4 0 -8 58 -8 129 l0 128 63 13 c34 6 91 23 127 38 68 27 123
38 203 41 l47 1 0 -114z m262 75 c42 -17 81 -31 87 -31 5 0 33 -5 61 -11 l50
-11 0 -135 0 -135 -46 40 c-63 56 -116 72 -240 72 -57 0 -114 4 -128 10 -26 9
-26 10 -26 126 l0 117 83 -6 c58 -4 105 -15 159 -36z m-869 -144 c44 -20 80
-24 120 -14 l27 7 0 -95 0 -95 -35 0 c-43 0 -84 20 -144 68 -43 35 -43 36 -38
84 6 51 14 71 25 66 4 -2 24 -12 45 -21z m1296 -14 c18 -64 14 -79 -31 -116
-56 -45 -98 -66 -140 -69 l-33 -3 -3 97 -3 96 58 -5 c46 -3 65 0 93 16 47 27
48 27 59 -16z m-689 -318 c0 -163 4 -255 10 -255 6 0 10 91 10 253 l0 252 122
-3 c153 -4 203 -19 268 -80 l50 -47 -64 -220 c-85 -288 -147 -467 -205 -590
-72 -150 -70 -148 -181 -148 -86 0 -94 1 -113 24 -61 73 -172 367 -282 744
l-55 190 44 41 c74 68 104 78 251 85 72 3 133 6 138 7 4 1 7 -113 7 -253z
m-633 169 c53 -40 80 -52 137 -62 l38 -7 32 -113 c18 -61 30 -112 28 -112 -3
0 -27 20 -53 45 -38 36 -149 100 -219 127 -9 3 -25 158 -16 158 3 0 27 -16 53
-36z m1339 -10 c-3 -26 -6 -61 -6 -78 0 -30 -4 -34 -84 -70 -55 -25 -106 -57
-146 -93 -68 -62 -67 -69 -22 86 l28 95 49 11 c57 13 97 33 140 69 42 36 49
32 41 -20z m-205 -575 c-130 -916 -165 -1307 -142 -1574 18 -212 60 -349 136
-449 46 -60 47 -30 2 37 -41 60 -77 150 -92 229 l-7 37 51 -6 c63 -7 125 14
169 60 38 39 107 184 123 257 20 94 9 149 -47 232 -108 161 -196 378 -229 563
-14 82 -14 95 10 273 34 255 75 545 79 557 1 6 10 -23 19 -63 27 -118 77 -202
198 -328 130 -136 159 -190 190 -354 19 -99 21 -137 16 -275 -4 -104 -13 -195
-27 -260 -26 -126 -96 -333 -153 -456 -40 -87 -44 -103 -51 -203 -8 -127 -30
-238 -54 -281 -14 -23 -16 -40 -10 -75 4 -25 10 -115 14 -200 10 -240 -19
-480 -86 -700 -34 -115 -59 -253 -67 -378 -8 -126 25 -309 72 -402 18 -36 45
-99 61 -140 18 -47 52 -106 93 -160 82 -109 113 -174 99 -206 -14 -29 -71 -57
-164 -79 -66 -15 -74 -15 -103 -1 -17 9 -40 34 -51 56 -11 22 -24 40 -29 40
-19 0 -75 131 -95 221 -4 18 -18 31 -45 44 -47 21 -86 59 -100 98 -15 39 -13
114 4 162 8 22 15 59 15 83 0 24 20 125 45 225 104 427 152 687 162 873 10
203 14 194 -144 348 l-136 132 16 110 c29 193 37 293 47 614 21 651 52 955
151 1480 30 161 31 166 67 198 20 18 38 29 40 24 2 -6 -20 -169 -47 -363z
m-987 338 c25 -20 31 -37 52 -143 95 -485 154 -987 154 -1329 0 -280 23 -621
56 -829 16 -108 21 -99 -136 -248 -60 -58 -113 -116 -118 -129 -46 -123 6
-492 154 -1088 25 -100 44 -195 41 -209 -3 -14 4 -50 15 -81 40 -116 8 -215
-85 -262 -23 -12 -43 -23 -45 -24 -1 -1 -12 -35 -23 -75 -22 -81 -49 -140 -74
-160 -9 -8 -25 -31 -36 -52 -10 -21 -33 -45 -50 -53 -28 -15 -37 -15 -102 0
-85 19 -154 50 -167 75 -18 34 32 130 130 250 20 25 47 74 59 110 13 36 40 99
61 140 53 105 86 281 77 412 -8 125 -31 252 -67 373 -80 272 -108 576 -79 845
10 93 9 105 -9 148 -26 61 -41 142 -49 272 -6 95 -10 113 -48 195 -164 353
-223 717 -165 1008 30 149 62 207 188 340 118 124 171 210 196 317 8 34 17 64
19 66 2 2 14 -69 26 -158 83 -598 83 -593 47 -743 -42 -172 -104 -314 -210
-481 -52 -82 -56 -92 -56 -149 0 -69 18 -139 60 -231 57 -124 131 -179 232
-172 32 2 58 2 58 -2 0 -3 -9 -38 -20 -79 -24 -84 -57 -154 -96 -200 -18 -22
-23 -36 -17 -42 7 -7 22 6 47 40 134 182 166 535 101 1121 -27 241 -80 645
-130 994 -19 132 -35 243 -35 248 0 14 14 9 44 -15z m105 -127 c10 -19 38 -91
61 -160 23 -69 60 -172 82 -229 l41 -104 0 -291 c0 -275 -7 -394 -36 -581
l-12 -80 -6 55 c-4 30 -8 105 -8 165 -3 265 -73 833 -147 1190 -7 39 -14 77
-14 85 0 13 1 13 11 0 5 -8 18 -31 28 -50z m802 -62 c-74 -370 -140 -913 -142
-1178 0 -63 -4 -137 -7 -165 l-7 -50 -12 80 c-33 212 -37 283 -37 580 l0 310
26 60 c15 33 52 137 83 230 55 164 104 272 112 248 3 -7 -5 -59 -16 -115z
m-531 -573 c51 -31 38 -290 -26 -510 -10 -37 -15 -129 -18 -350 -2 -165 -11
-376 -20 -470 -9 -93 -16 -179 -17 -190 -2 -56 -19 35 -33 176 -28 289 -30
393 -7 494 42 190 54 325 55 642 l1 301 27 -43 c15 -24 32 -46 38 -50z m301
-105 c-5 -286 20 -570 66 -770 17 -74 13 -215 -13 -479 -15 -147 -32 -232 -33
-171 -1 14 -8 99 -17 190 -9 91 -18 300 -20 467 -4 294 -5 304 -33 415 -58
224 -61 395 -7 458 14 18 33 45 42 61 8 16 16 29 17 29 1 0 0 -90 -2 -200z
m305 -295 c36 -109 101 -242 170 -348 66 -103 75 -147 50 -245 -21 -83 -88
-213 -126 -245 -44 -37 -100 -52 -152 -41 -40 9 -43 11 -51 54 -13 68 -12 449
2 580 52 491 48 469 67 385 8 -33 26 -96 40 -140z m-897 33 c32 -288 41 -420
40 -603 0 -110 -4 -222 -7 -250 -7 -49 -8 -50 -49 -58 -55 -10 -114 6 -156 43
-41 36 -113 185 -128 265 -16 85 -5 127 52 214 92 139 188 365 215 506 7 39 8
39 15 13 4 -15 12 -74 18 -130z m239 -1367 c82 -182 92 -372 30 -527 l-24 -59
-42 2 c-57 2 -162 56 -223 113 l-49 46 0 95 c0 134 8 154 86 219 36 30 90 83
121 118 30 34 58 62 63 62 4 0 21 -31 38 -69z m438 17 c27 -29 80 -81 119
-116 38 -35 75 -78 82 -95 7 -18 12 -77 12 -131 l1 -100 -51 -48 c-58 -55
-157 -107 -218 -115 l-41 -6 -24 54 c-68 148 -56 365 29 552 15 31 30 57 34
57 5 0 30 -24 57 -52z m-592 -588 c33 -17 77 -33 98 -37 21 -3 40 -8 42 -12 2
-3 -7 -62 -20 -131 -13 -69 -23 -127 -24 -129 0 -2 -14 15 -31 39 -17 23 -66
79 -109 124 -70 73 -78 86 -84 131 -4 28 -10 66 -13 85 l-6 34 44 -37 c24 -21
70 -51 103 -67z m785 14 l-12 -79 -80 -85 c-44 -47 -93 -102 -108 -123 -27
-37 -28 -38 -34 -15 -16 65 -43 234 -39 240 3 5 14 8 24 8 39 0 134 44 193 89
34 26 63 47 65 46 1 -1 -3 -38 -9 -81z m-814 -211 c37 -42 78 -94 92 -115 l26
-39 -16 -122 c-9 -67 -20 -162 -23 -210 -4 -49 -10 -85 -14 -80 -19 22 -154
643 -140 643 4 0 38 -34 75 -77z m788 50 c-22 -131 -132 -604 -143 -616 -4 -5
-10 31 -14 80 -4 48 -14 143 -23 210 l-16 122 24 40 c27 44 156 191 168 191 5
0 6 -12 4 -27z"/>
<path d="M8905 8596 c-69 -17 -123 -47 -167 -93 -60 -62 -68 -93 -68 -258 0
-138 -1 -146 -19 -140 -10 3 -28 -2 -41 -13 -51 -41 -16 -212 51 -250 20 -12
29 -27 34 -57 3 -22 15 -49 25 -60 17 -18 20 -38 22 -124 l3 -104 -210 -89
c-146 -63 -238 -96 -300 -108 -169 -34 -254 -76 -351 -174 -97 -97 -151 -205
-174 -350 -9 -60 -14 -69 -59 -111 -61 -57 -112 -154 -140 -264 -12 -47 -21
-92 -21 -100 -1 -9 -21 -29 -46 -45 -88 -55 -139 -141 -163 -271 -20 -108 -85
-293 -201 -569 -34 -83 -86 -218 -114 -302 l-52 -153 36 -98 35 -98 102 -14
c94 -14 104 -13 121 2 23 21 32 21 32 2 0 -46 54 -101 72 -73 17 27 58 165 58
195 0 42 -52 180 -95 254 l-34 59 43 40 c23 22 55 49 70 61 48 38 205 220 265
309 70 101 132 222 157 305 13 44 31 74 69 115 63 67 123 155 191 278 l51 92
112 -275 c123 -304 127 -326 95 -449 -12 -46 -15 -84 -10 -158 7 -95 6 -99
-18 -125 -34 -36 -68 -136 -146 -423 -10 -36 -30 -144 -44 -240 -15 -96 -36
-224 -48 -285 -17 -94 -20 -135 -15 -285 8 -253 54 -443 175 -721 46 -105 51
-122 56 -216 7 -115 28 -229 52 -275 14 -26 14 -43 5 -124 -31 -262 8 -662 86
-879 20 -54 52 -239 60 -342 8 -115 -25 -300 -72 -393 -18 -36 -45 -97 -59
-137 -23 -61 -39 -84 -107 -152 -71 -71 -80 -84 -77 -112 7 -70 108 -101 265
-81 53 7 108 19 121 28 31 20 59 68 78 132 13 43 22 56 52 71 45 23 87 66 101
104 15 40 13 134 -4 182 -19 51 -19 114 0 300 30 301 85 615 119 684 40 80 51
139 51 266 -1 135 -22 230 -76 337 l-30 60 15 167 c32 350 46 658 37 826 -3
55 3 95 27 187 39 147 59 317 45 387 l-10 51 77 0 77 0 -9 -47 c-16 -83 14
-306 64 -473 10 -32 12 -71 7 -135 -10 -135 9 -514 47 -900 5 -54 2 -67 -29
-135 -48 -102 -67 -177 -74 -290 -6 -110 5 -185 43 -273 32 -77 45 -133 84
-362 32 -191 60 -450 60 -551 0 -33 -7 -82 -16 -108 -11 -31 -15 -69 -12 -111
3 -53 9 -71 34 -102 17 -21 49 -48 72 -61 34 -19 43 -31 56 -75 19 -63 47
-111 78 -131 39 -25 207 -42 276 -28 146 31 147 105 2 226 -37 31 -51 52 -69
105 -13 36 -40 98 -61 137 -23 43 -40 92 -44 126 -4 30 -14 80 -21 109 -8 30
-15 79 -15 109 0 88 37 316 69 425 81 274 112 607 80 867 -9 73 -8 91 5 117
26 50 45 149 53 271 6 108 9 120 50 209 57 122 126 329 153 456 34 155 39 414
11 565 -11 63 -30 178 -41 255 -25 174 -33 210 -77 360 -72 250 -83 282 -112
323 -30 40 -30 42 -24 139 4 73 1 113 -11 159 -31 118 -27 135 95 439 l112
276 51 -93 c69 -124 129 -211 191 -278 34 -36 56 -71 64 -100 22 -76 88 -209
155 -309 57 -86 251 -314 274 -322 5 -2 32 -25 61 -51 l51 -46 -35 -60 c-43
-75 -95 -213 -95 -255 0 -28 51 -191 63 -203 17 -17 67 43 67 81 0 19 9 19 32
-2 17 -15 27 -16 121 -2 l102 14 36 97 37 96 -58 169 c-32 93 -83 228 -113
299 -106 247 -179 458 -202 577 -8 44 -27 102 -42 129 -27 49 -98 121 -138
140 -15 7 -24 29 -37 96 -23 116 -82 234 -146 294 -46 43 -49 50 -65 130 -40
202 -143 351 -299 434 -79 41 -99 47 -223 74 -59 12 -162 49 -300 108 l-210
90 3 103 c2 85 6 107 21 123 11 12 23 38 26 59 5 24 17 44 35 57 42 30 72 99
73 171 2 53 -1 63 -22 80 -14 12 -31 17 -42 14 -18 -6 -19 2 -19 140 0 165 -8
196 -68 258 -85 89 -226 125 -357 93z m223 -32 c62 -20 135 -80 162 -135 17
-33 20 -59 20 -181 0 -145 -15 -405 -26 -466 -8 -41 -69 -79 -192 -119 l-83
-27 -67 17 c-37 10 -101 34 -142 55 -88 45 -84 34 -99 262 -16 231 -14 403 5
448 57 137 246 203 422 146z m-463 -495 c4 -5 10 -55 14 -110 5 -84 4 -99 -8
-97 -27 6 -61 87 -61 148 0 31 3 60 7 63 10 11 41 8 48 -4z m723 -54 c2 -48
-2 -69 -21 -105 -13 -25 -30 -46 -38 -48 -12 -2 -13 13 -7 98 4 56 10 105 14
111 3 6 16 9 27 7 19 -3 22 -10 25 -63z m-388 -390 c52 0 82 7 152 36 l87 36
-6 -102 c-5 -81 -3 -104 8 -111 8 -5 120 -54 249 -109 230 -98 235 -101 255
-140 17 -34 20 -37 23 -18 2 12 -2 31 -8 43 -10 19 -9 20 17 14 150 -33 235
-76 323 -164 107 -106 161 -236 175 -419 8 -101 31 -129 28 -33 -1 21 14 13
52 -29 60 -66 106 -181 129 -320 5 -28 16 -43 44 -61 93 -62 146 -142 163
-249 15 -92 69 -251 165 -486 47 -114 112 -286 146 -380 l60 -173 -28 -77
c-15 -43 -32 -83 -38 -89 -6 -6 -47 -16 -91 -22 -75 -10 -82 -10 -112 11 -21
14 -38 38 -48 66 -14 41 -14 46 7 83 12 21 27 37 33 34 6 -2 42 -7 78 -11 65
-7 67 -8 67 -35 0 -15 7 -33 15 -40 20 -16 32 -5 16 14 -7 8 -9 25 -5 40 7 28
6 29 -106 46 -90 14 -86 15 -115 -35 l-27 -45 18 -69 c15 -56 16 -74 6 -95 -6
-14 -16 -26 -21 -26 -5 0 -22 37 -37 82 l-27 82 27 80 c14 45 46 117 70 161
l44 80 -119 114 c-66 62 -146 146 -178 185 -119 145 -219 321 -251 441 -10 36
-27 63 -65 101 -28 29 -72 84 -98 122 -43 64 -137 230 -137 242 0 3 48 6 106
7 59 1 111 6 117 12 17 17 6 19 -82 8 -68 -7 -96 -6 -150 7 -124 31 -290 147
-360 252 l-30 47 34 61 c30 53 95 200 95 213 0 3 -5 3 -10 1 -6 -2 -30 -48
-55 -103 -52 -115 -119 -218 -175 -269 -21 -19 -85 -65 -142 -102 -63 -42
-137 -102 -190 -156 l-88 -88 0 440 c0 287 -3 440 -10 440 -7 0 -10 -153 -10
-439 l0 -440 -87 88 c-56 55 -132 117 -207 167 -87 58 -134 97 -173 144 -46
55 -119 189 -162 293 -6 15 -15 26 -20 22 -12 -7 36 -124 85 -212 l35 -64 -35
-48 c-70 -94 -193 -188 -305 -233 -43 -17 -76 -22 -146 -22 -50 1 -103 4 -119
8 -21 5 -27 4 -24 -6 6 -16 102 -30 176 -26 28 2 52 0 52 -4 0 -15 -103 -194
-148 -258 -26 -36 -66 -84 -89 -108 -32 -32 -49 -61 -68 -120 -66 -197 -205
-395 -424 -604 l-120 -114 40 -68 c22 -37 54 -109 71 -158 l31 -90 -29 -90
c-28 -89 -28 -90 -46 -68 -22 27 -22 45 -1 124 l16 62 -28 42 c-15 23 -29 42
-31 42 -13 0 -163 -22 -177 -26 -12 -4 -15 -12 -11 -30 4 -14 1 -31 -6 -39
-17 -20 -5 -32 15 -15 8 7 15 25 15 40 0 27 2 28 67 35 36 4 71 9 77 11 6 2
21 -12 33 -31 21 -32 22 -38 11 -81 -10 -35 -22 -53 -48 -70 -34 -22 -38 -23
-120 -11 l-85 12 -33 88 -33 88 60 172 c33 95 85 233 116 307 107 253 195 508
195 564 0 73 82 195 165 246 29 18 35 29 45 78 17 90 30 133 60 197 29 60 93
145 111 145 5 0 9 -16 9 -35 0 -69 17 -33 24 51 15 188 69 317 176 424 88 88
173 131 323 164 26 6 27 5 17 -14 -6 -12 -9 -31 -7 -43 3 -20 5 -19 16 10 7
17 23 39 36 47 12 8 121 56 241 107 121 50 225 97 233 103 11 8 13 32 8 112
l-6 101 87 -36 c68 -27 101 -35 152 -36z m-317 -1097 c138 -94 232 -178 276
-247 l31 -48 -2 -589 -3 -589 -28 73 c-35 87 -113 209 -153 238 -119 86 -279
106 -465 59 l-27 -7 -6 84 c-4 50 -2 103 4 133 6 28 14 76 17 108 3 31 7 57 9
57 2 0 21 -19 42 -42 20 -22 74 -66 120 -96 48 -31 111 -86 152 -130 70 -77
108 -95 52 -25 -52 66 -118 124 -204 182 -132 89 -154 123 -284 447 l-113 279
48 21 c112 50 255 164 303 242 l21 34 44 -51 c25 -28 99 -88 166 -133z m926
79 c58 -63 127 -112 216 -157 l73 -35 -116 -290 -116 -289 -65 -66 c-36 -37
-84 -76 -107 -88 -48 -24 -127 -94 -185 -163 -67 -80 -35 -70 41 13 41 44 104
99 152 130 46 30 100 74 120 96 21 23 40 42 43 42 3 0 5 -15 5 -34 0 -18 7
-66 16 -105 12 -53 15 -93 9 -156 -4 -47 -8 -85 -8 -85 -1 0 -34 7 -72 15
-178 37 -346 3 -439 -90 -43 -43 -107 -150 -138 -230 l-23 -60 -3 590 -2 590
36 52 c52 75 131 146 268 237 66 45 138 102 164 132 l47 54 20 -28 c11 -15 40
-49 64 -75z m-896 -1215 c71 -33 99 -58 145 -125 90 -130 132 -274 132 -452 0
-164 -13 -204 -90 -283 -81 -83 -113 -92 -351 -95 -205 -2 -249 6 -329 64 -52
38 -68 28 -20 -12 45 -38 119 -65 203 -74 67 -7 68 -8 53 -29 -141 -195 -230
-476 -254 -801 l-8 -110 -18 40 c-34 76 -95 271 -116 370 -14 64 -23 156 -27
255 -5 142 -3 171 27 350 17 107 40 249 51 315 18 108 34 172 115 443 33 110
64 145 141 160 32 7 67 14 78 16 11 3 62 3 113 1 77 -3 103 -8 155 -33z m922
18 c22 -6 50 -16 63 -22 29 -15 66 -91 92 -193 12 -44 33 -115 46 -158 33
-106 49 -186 74 -357 12 -80 31 -194 42 -255 27 -143 21 -386 -12 -540 -24
-113 -105 -364 -126 -392 -12 -16 -13 -12 -14 35 -1 280 -106 647 -234 827
l-36 50 81 12 c83 12 172 48 204 83 30 33 10 34 -35 1 -80 -58 -124 -66 -329
-64 -238 3 -270 12 -351 95 -77 79 -90 119 -90 283 0 145 21 239 80 360 66
137 159 221 274 245 50 11 216 5 271 -10z m-621 -803 c3 -13 17 -36 31 -51 14
-15 25 -28 25 -29 0 -1 -32 -2 -70 -2 -39 -1 -70 0 -70 2 0 1 11 14 25 29 14
15 28 38 31 51 4 13 10 23 14 23 4 0 10 -10 14 -23z m-101 -176 c10 -89 -12
-250 -53 -397 -18 -62 -21 -110 -24 -375 -3 -260 -18 -511 -42 -690 l-5 -46
-34 16 c-35 17 -84 88 -104 152 -17 52 -17 120 -2 364 13 213 10 708 -5 893
l-7 72 55 0 c64 0 143 22 178 50 14 11 28 20 31 20 3 0 9 -26 12 -59z m219 38
c41 -29 111 -49 175 -49 l54 0 -8 -152 c-11 -217 -8 -821 6 -959 13 -137 5
-195 -39 -286 -24 -48 -39 -65 -69 -80 l-40 -20 -6 46 c-21 167 -38 438 -41
693 -4 274 -6 304 -28 395 -31 123 -44 201 -47 278 -3 86 0 155 7 155 3 0 19
-10 36 -21z m-501 -294 c12 -246 7 -663 -11 -876 -12 -138 -37 -295 -50 -318
-6 -12 -28 -16 -87 -17 -49 -1 -92 -7 -117 -18 -21 -10 -39 -16 -41 -14 -27
33 -52 154 -61 294 -5 79 -12 120 -27 149 -18 36 -19 52 -14 170 14 309 99
605 225 790 l48 70 55 5 c30 3 57 3 61 0 4 -3 12 -108 19 -235z m913 172 c115
-163 198 -415 226 -686 16 -162 13 -245 -10 -291 -13 -25 -20 -59 -20 -92 0
-113 -32 -295 -58 -336 -8 -11 -16 -10 -48 4 -25 11 -68 17 -118 18 -74 2 -79
3 -88 26 -50 134 -80 734 -59 1170 7 134 14 247 16 250 2 3 28 3 59 2 l56 -4
44 -61z m-863 -1369 c20 -28 20 -29 2 -73 -17 -43 -33 -59 -33 -34 0 7 -16 27
-35 45 -28 26 -34 37 -27 51 6 10 15 45 22 78 l12 60 20 -49 c10 -27 28 -62
39 -78z m709 76 c0 -12 7 -40 15 -63 l15 -42 -35 -35 c-19 -19 -35 -39 -35
-44 0 -24 -16 -6 -33 34 l-18 44 30 47 c16 26 33 61 37 77 4 23 8 27 15 17 5
-8 9 -24 9 -35z m-809 -139 c24 -15 47 -44 65 -82 l29 -57 7 44 c24 138 66
139 132 3 98 -198 111 -422 36 -582 -54 -113 -140 -675 -140 -906 0 -38 7 -88
15 -110 17 -48 19 -123 4 -162 -38 -102 -178 -146 -250 -77 -30 29 -44 29 -33
0 8 -22 76 -56 110 -56 25 0 26 -2 21 -36 -8 -48 -38 -104 -68 -125 -31 -23
-174 -42 -244 -34 -67 9 -115 37 -115 67 0 15 26 48 78 98 67 65 81 85 106
150 16 41 43 104 61 140 47 93 80 276 72 402 -8 125 -33 263 -67 378 -57 187
-90 415 -90 621 0 141 17 300 35 318 21 22 106 41 155 36 24 -3 61 -16 81 -30z
m1049 9 c46 -18 48 -28 57 -259 9 -243 -19 -465 -87 -700 -36 -121 -59 -249
-67 -373 -9 -131 24 -307 77 -412 21 -41 48 -104 61 -140 20 -54 35 -76 101
-140 52 -50 78 -83 78 -98 0 -30 -48 -58 -115 -67 -65 -8 -212 11 -243 31 -26
17 -72 107 -72 142 0 17 6 22 26 22 35 0 92 28 105 52 16 29 2 35 -22 9 -42
-45 -106 -53 -169 -21 -88 45 -121 144 -85 252 21 61 21 104 -1 338 -16 179
-78 563 -99 620 -7 19 -26 67 -41 105 -24 62 -27 84 -28 190 -1 96 4 135 22
198 35 124 109 257 142 257 15 0 33 -40 46 -100 l12 -55 20 46 c24 56 73 106
115 118 39 12 116 5 167 -15z"/>
</g>
</svg>
